<svg xmlns="http://www.w3.org/2000/svg" width="355" height="394" viewBox="0 0 355 394">
  <g id="Group_5" data-name="Group 5" transform="translate(158 -346)">
    <g id="Group_4" data-name="Group 4" transform="translate(3 33)">
      <g id="Rectangle_5" data-name="Rectangle 5" transform="translate(94 330)" fill="none" stroke="#fff" stroke-width="5">
        <rect width="100" height="72" stroke="none"/>
        <rect x="2.5" y="2.5" width="95" height="67" fill="none"/>
      </g>
      <g id="Path_2" data-name="Path 2" transform="translate(94 474)" fill="none">
        <path d="M0,0H100V72H0Z" stroke="none"/>
        <path d="M 5 5 L 5 67 L 95 67 L 95 5 L 5 5 M 0 0 L 100 0 L 100 72 L 0 72 L 0 0 Z" stroke="none" fill="#fff"/>
      </g>
      <g id="Rectangle_6" data-name="Rectangle 6" transform="translate(94 618)" fill="none" stroke="#fff" stroke-width="5">
        <rect width="100" height="72" stroke="none"/>
        <rect x="2.5" y="2.5" width="95" height="67" fill="none"/>
      </g>
      <g id="Rectangle_7" data-name="Rectangle 7" transform="translate(-161 330)" fill="none" stroke="#fff" stroke-width="5">
        <rect width="259" height="360" stroke="none"/>
        <rect x="2.5" y="2.5" width="254" height="355" fill="none"/>
      </g>
      <text id="R" transform="translate(-136 631)" fill="#fff" font-size="350" font-family="AndaleMono, Andale Mono"><tspan x="0" y="0">R</tspan></text>
      <g id="Rectangle_23" data-name="Rectangle 23" transform="translate(94 330)" fill="none" stroke="#fff" stroke-width="5">
        <rect width="100" height="72" stroke="none"/>
        <rect x="2.5" y="2.5" width="95" height="67" fill="none"/>
      </g>
      <g id="Path_8" data-name="Path 8" transform="translate(94 474)" fill="none">
        <path d="M0,0H100V72H0Z" stroke="none"/>
        <path d="M 5 5 L 5 67 L 95 67 L 95 5 L 5 5 M 0 0 L 100 0 L 100 72 L 0 72 L 0 0 Z" stroke="none" fill="#fff"/>
      </g>
      <g id="Rectangle_24" data-name="Rectangle 24" transform="translate(94 618)" fill="none" stroke="#fff" stroke-width="5">
        <rect width="100" height="72" stroke="none"/>
        <rect x="2.5" y="2.5" width="95" height="67" fill="none"/>
      </g>
      <g id="Rectangle_25" data-name="Rectangle 25" transform="translate(-161 330)" fill="none" stroke="#fff" stroke-width="5">
        <rect width="259" height="360" stroke="none"/>
        <rect x="2.5" y="2.5" width="254" height="355" fill="none"/>
      </g>
      <text id="R-2" data-name="R" transform="translate(-136 631)" fill="#fff" font-size="350" font-family="AndaleMono, Andale Mono"><tspan x="0" y="0">R</tspan></text>
    </g>
  </g>
</svg>
