<svg xmlns="http://www.w3.org/2000/svg" width="355" height="360" viewBox="0 0 355 360">
  <g id="Group_3" data-name="Group 3" transform="translate(161 -779)">
    <g id="Rectangle_26" data-name="Rectangle 26" transform="translate(94 779)" fill="#fff" stroke="#fff" stroke-width="5">
      <rect width="100" height="72" stroke="none"/>
      <rect x="2.5" y="2.5" width="95" height="67" fill="none"/>
    </g>
    <g id="Path_9" data-name="Path 9" transform="translate(94 923)" fill="#fff">
      <path d="M 97.5 69.5 L 2.5 69.5 L 2.5 2.5 L 97.5 2.5 L 97.5 69.5 Z" stroke="none"/>
      <path d="M 5 5 L 5 67 L 95 67 L 95 5 L 5 5 M 0 0 L 100 0 L 100 72 L 0 72 L 0 0 Z" stroke="none" fill="#fff"/>
    </g>
    <g id="Rectangle_27" data-name="Rectangle 27" transform="translate(94 1067)" fill="#fff" stroke="#fff" stroke-width="5">
      <rect width="100" height="72" stroke="none"/>
      <rect x="2.5" y="2.5" width="95" height="67" fill="none"/>
    </g>
    <path id="Subtraction_1" data-name="Subtraction 1" d="M256.5,374.5H2.5V19.5h254v355ZM119.849,208.454,190.6,318h35.034L148.559,202.473a84.387,84.387,0,0,0,22.73-8.909,66.176,66.176,0,0,0,17.261-14.419,61.739,61.739,0,0,0,10.895-18.393,59.761,59.761,0,0,0,3.632-20.828,76.326,76.326,0,0,0-1.244-14.051,59.348,59.348,0,0,0-3.733-12.417,52.565,52.565,0,0,0-6.222-10.783,54.9,54.9,0,0,0-8.711-9.148,62.985,62.985,0,0,0-10.857-7.29,72.224,72.224,0,0,0-12.662-5.207A91.178,91.178,0,0,0,145.179,77.9a121.825,121.825,0,0,0-16.273-1.041H60.718V318H88.745V208.454h31.1Zm4.272-24.439H88.745V101.3H124.8a82.545,82.545,0,0,1,21.533,2.521,41.13,41.13,0,0,1,15.381,7.562,31.361,31.361,0,0,1,9.228,12.6,46.83,46.83,0,0,1,3.076,17.645,38.514,38.514,0,0,1-13.842,30.335A46.613,46.613,0,0,1,144.244,181,63.55,63.55,0,0,1,124.121,184.016Z" transform="translate(-161 762)" fill="#fff" stroke="#fff" stroke-width="5"/>
  </g>
</svg>
